<?xml version="1.0" encoding="UTF-8" standalone="no"?>
<svg width="100%" height="100%" viewBox="0 0 1500 300" version="1.1" xmlns="http://www.w3.org/2000/svg" xmlns:xlink="http://www.w3.org/1999/xlink" xml:space="preserve" xmlns:serif="http://www.serif.com/" style="fill-rule:evenodd;clip-rule:evenodd;stroke-linejoin:round;stroke-miterlimit:1.5;">
    <g transform="matrix(2.3659,0,0,2.3659,-298.349,-1012.34)">
        <path d="M154.408,497.266L155.808,497.266C156.742,498.666 157.792,500.032 158.958,501.366C160.125,502.699 161.408,503.899 162.808,504.966C164.208,506.032 165.708,506.899 167.308,507.566C168.908,508.232 170.608,508.566 172.408,508.566C173.275,508.566 174.158,508.482 175.058,508.316C175.958,508.149 176.775,507.866 177.508,507.466C178.242,507.066 178.842,506.532 179.308,505.866C179.775,505.199 180.008,504.366 180.008,503.366C180.008,501.699 179.392,500.332 178.158,499.266C176.925,498.199 175.408,497.266 173.608,496.466C171.808,495.666 169.825,494.916 167.658,494.216C165.492,493.516 163.508,492.682 161.708,491.716C159.908,490.749 158.392,489.566 157.158,488.166C155.925,486.766 155.308,484.966 155.308,482.766C155.308,479.166 156.425,476.399 158.658,474.466C160.892,472.532 163.708,471.566 167.108,471.566C169.642,471.566 172.092,471.899 174.458,472.566C176.825,473.232 179.275,473.632 181.808,473.766L182.408,484.366L181.108,484.366C180.442,483.099 179.608,481.882 178.608,480.716C177.608,479.549 176.492,478.516 175.258,477.616C174.025,476.716 172.708,475.982 171.308,475.416C169.908,474.849 168.475,474.566 167.008,474.566C165.342,474.566 163.842,474.932 162.508,475.666C161.175,476.399 160.508,477.732 160.508,479.666C160.508,481.066 161.125,482.216 162.358,483.116C163.592,484.016 165.108,484.849 166.908,485.616C168.708,486.382 170.692,487.132 172.858,487.866C175.025,488.599 177.008,489.482 178.808,490.516C180.608,491.549 182.125,492.816 183.358,494.316C184.592,495.816 185.208,497.666 185.208,499.866C185.208,502.199 184.825,504.116 184.058,505.616C183.292,507.116 182.242,508.299 180.908,509.166C179.575,510.032 178.025,510.649 176.258,511.016C174.492,511.382 172.608,511.566 170.608,511.566C169.008,511.566 167.475,511.449 166.008,511.216C164.542,510.982 163.158,510.699 161.858,510.366C160.558,510.032 159.342,509.732 158.208,509.466C157.075,509.199 156.075,508.999 155.208,508.866L154.408,497.266Z" style="fill:rgb(1,2,3);fill-rule:nonzero;"/>
        <path d="M187.708,472.766C188.975,472.832 190.092,472.899 191.058,472.966C192.025,473.032 192.942,473.082 193.808,473.116C194.675,473.149 195.558,473.166 196.458,473.166L199.508,473.166C201.308,473.166 203.108,473.132 204.908,473.066C206.708,472.999 208.508,472.899 210.308,472.766L210.308,474.066C208.908,474.132 207.625,474.616 206.458,475.516C205.292,476.416 204.708,477.632 204.708,479.166C204.708,480.366 205.108,481.982 205.908,484.016C206.708,486.049 207.642,488.182 208.708,490.416C209.775,492.649 210.842,494.816 211.908,496.916C212.975,499.016 213.742,500.699 214.208,501.966L224.308,482.166C223.975,481.299 223.558,480.399 223.058,479.466C222.558,478.532 221.958,477.682 221.258,476.916C220.558,476.149 219.742,475.499 218.808,474.966C217.875,474.432 216.808,474.099 215.608,473.966L215.608,472.766C216.275,472.832 216.925,472.899 217.558,472.966C218.192,473.032 218.875,473.082 219.608,473.116C220.342,473.149 221.192,473.166 222.158,473.166L225.608,473.166C227.742,473.166 229.842,473.132 231.908,473.066C233.975,472.999 236.042,472.899 238.108,472.766L238.108,473.966C236.375,474.032 234.892,474.516 233.658,475.416C232.425,476.316 231.808,477.632 231.808,479.366C231.808,480.299 232.225,481.816 233.058,483.916C233.892,486.016 234.858,488.249 235.958,490.616C237.058,492.982 238.125,495.266 239.158,497.466C240.192,499.666 240.908,501.299 241.308,502.366C241.842,501.366 242.658,499.799 243.758,497.666C244.858,495.532 245.942,493.299 247.008,490.966C248.075,488.632 249.008,486.432 249.808,484.366C250.608,482.299 251.008,480.799 251.008,479.866C251.008,477.866 250.575,476.449 249.708,475.616C248.842,474.782 247.442,474.232 245.508,473.966L245.508,472.766C247.042,472.899 248.542,472.999 250.008,473.066C251.475,473.132 252.975,473.166 254.508,473.166C255.975,473.166 257.442,473.132 258.908,473.066C260.375,472.999 261.842,472.899 263.308,472.766L263.308,473.966C261.708,474.166 260.308,474.782 259.108,475.816C257.908,476.849 256.825,478.082 255.858,479.516C254.892,480.949 254.025,482.516 253.258,484.216C252.492,485.916 251.742,487.499 251.008,488.966L240.208,511.166L238.008,511.166L225.908,484.866L213.008,511.166L210.508,511.166C209.575,508.899 208.558,506.532 207.458,504.066C206.358,501.599 205.242,499.149 204.108,496.716C202.975,494.282 201.858,491.916 200.758,489.616C199.658,487.316 198.642,485.199 197.708,483.266C196.575,480.932 195.142,478.899 193.408,477.166C191.675,475.432 189.775,474.366 187.708,473.966L187.708,472.766Z" style="fill:rgb(1,2,3);fill-rule:nonzero;"/>
        <path d="M272.608,485.066C272.608,483.466 272.558,482.049 272.458,480.816C272.358,479.582 272.058,478.549 271.558,477.716C271.058,476.882 270.308,476.199 269.308,475.666C268.308,475.132 266.942,474.766 265.208,474.566L265.208,473.166L280.408,472.166L280.408,501.566C280.408,503.232 280.542,504.549 280.808,505.516C281.075,506.482 281.525,507.216 282.158,507.716C282.792,508.216 283.608,508.566 284.608,508.766C285.608,508.966 286.842,509.099 288.308,509.166L288.308,510.366C285.975,510.232 283.625,510.132 281.258,510.066C278.892,509.999 276.542,509.966 274.208,509.966C272.675,509.966 271.175,509.999 269.708,510.066C268.242,510.132 266.742,510.232 265.208,510.366L265.208,509.166C266.542,509.099 267.675,508.966 268.608,508.766C269.542,508.566 270.308,508.216 270.908,507.716C271.508,507.216 271.942,506.482 272.208,505.516C272.475,504.549 272.608,503.232 272.608,501.566L272.608,485.066ZM275.508,449.508C276.975,449.508 278.225,450.058 279.258,451.158C280.292,452.258 280.808,453.541 280.808,455.008C280.808,456.474 280.292,457.758 279.258,458.858C278.225,459.958 276.975,460.508 275.508,460.508C274.042,460.508 272.792,459.958 271.758,458.858C270.725,457.758 270.208,456.474 270.208,455.008C270.208,453.541 270.725,452.258 271.758,451.158C272.792,450.058 274.042,449.508 275.508,449.508Z" style="fill:rgb(1,2,3);fill-rule:nonzero;"/>
        <path d="M289.908,476.266L289.908,474.666C292.042,474.599 293.875,474.066 295.408,473.066C296.942,472.066 298.275,470.799 299.408,469.266C300.542,467.732 301.492,466.032 302.258,464.166C303.025,462.299 303.708,460.499 304.308,458.766L305.708,458.766L305.708,473.266L319.408,473.266L319.408,476.266L305.708,476.266L305.708,499.566C305.708,500.432 305.758,501.282 305.858,502.116C305.958,502.949 306.158,503.699 306.458,504.366C306.758,505.032 307.192,505.566 307.758,505.966C308.325,506.366 309.108,506.566 310.108,506.566C312.108,506.566 313.775,506.132 315.108,505.266C316.442,504.399 317.775,503.299 319.108,501.966L320.008,502.966C318.875,503.966 317.775,504.982 316.708,506.016C315.642,507.049 314.525,507.982 313.358,508.816C312.192,509.649 310.925,510.316 309.558,510.816C308.192,511.316 306.708,511.566 305.108,511.566C302.308,511.566 300.408,510.716 299.408,509.016C298.408,507.316 297.908,505.299 297.908,502.966L297.908,476.266L289.908,476.266Z" style="fill:rgb(1,2,3);fill-rule:nonzero;"/>
        <path d="M358.708,488.366C358.042,486.699 357.292,485.016 356.458,483.316C355.625,481.616 354.625,480.099 353.458,478.766C352.292,477.432 350.925,476.332 349.358,475.466C347.792,474.599 345.975,474.166 343.908,474.166C341.842,474.166 340.075,474.666 338.608,475.666C337.142,476.666 335.958,477.949 335.058,479.516C334.158,481.082 333.492,482.849 333.058,484.816C332.625,486.782 332.408,488.732 332.408,490.666C332.408,492.866 332.775,494.966 333.508,496.966C334.242,498.966 335.275,500.749 336.608,502.316C337.942,503.882 339.558,505.116 341.458,506.016C343.358,506.916 345.475,507.366 347.808,507.366C350.275,507.366 352.608,506.916 354.808,506.016C357.008,505.116 359.108,503.966 361.108,502.566L362.508,504.166C359.508,506.632 356.558,508.482 353.658,509.716C350.758,510.949 347.508,511.566 343.908,511.566C341.308,511.566 338.825,511.032 336.458,509.966C334.092,508.899 332.025,507.466 330.258,505.666C328.492,503.866 327.075,501.749 326.008,499.316C324.942,496.882 324.408,494.299 324.408,491.566C324.408,488.832 324.942,486.249 326.008,483.816C327.075,481.382 328.492,479.266 330.258,477.466C332.025,475.666 334.092,474.232 336.458,473.166C338.825,472.099 341.308,471.566 343.908,471.566C346.708,471.566 349.275,471.716 351.608,472.016C353.942,472.316 356.275,472.699 358.608,473.166L359.908,488.366L358.708,488.366Z" style="fill:rgb(1,2,3);fill-rule:nonzero;"/>
        <path d="M416.508,510.366C414.575,510.232 412.508,510.132 410.308,510.066C408.108,509.999 405.875,509.966 403.608,509.966C402.075,509.966 400.592,509.999 399.158,510.066C397.725,510.132 396.342,510.232 395.008,510.366L395.008,509.166C397.142,508.766 398.792,508.216 399.958,507.516C401.125,506.816 401.708,505.366 401.708,503.166L401.708,487.066C401.708,483.666 400.992,481.032 399.558,479.166C398.125,477.299 395.808,476.366 392.608,476.366C391.475,476.366 390.308,476.532 389.108,476.866C387.908,477.199 386.808,477.649 385.808,478.216C384.808,478.782 383.975,479.399 383.308,480.066C382.642,480.732 382.308,481.366 382.308,481.966L382.308,503.166C382.308,505.366 382.942,506.816 384.208,507.516C385.475,508.216 387.375,508.766 389.908,509.166L389.908,510.366C387.642,510.232 385.392,510.132 383.158,510.066C380.925,509.999 378.675,509.966 376.408,509.966C374.875,509.966 373.392,509.999 371.958,510.066C370.525,510.132 369.042,510.232 367.508,510.366L367.508,509.166C369.775,508.766 371.508,508.216 372.708,507.516C373.908,506.816 374.508,505.366 374.508,503.166L374.508,452.166C374.508,449.766 374.392,447.882 374.158,446.516C373.925,445.149 373.525,444.116 372.958,443.416C372.392,442.716 371.625,442.266 370.658,442.066C369.692,441.866 368.475,441.732 367.008,441.666L367.008,440.466L382.308,438.766L382.308,477.466C384.108,476.066 386.175,474.732 388.508,473.466C390.842,472.199 393.075,471.566 395.208,471.566C397.075,471.566 398.858,471.799 400.558,472.266C402.258,472.732 403.775,473.499 405.108,474.566C406.442,475.632 407.508,477.066 408.308,478.866C409.108,480.666 409.508,482.899 409.508,485.566L409.508,503.166C409.508,505.366 410.108,506.816 411.308,507.516C412.508,508.216 414.242,508.766 416.508,509.166L416.508,510.366Z" style="fill:rgb(1,2,3);fill-rule:nonzero;"/>
        <path d="M444.908,440.666L460.508,438.766C460.375,445.032 460.292,451.232 460.258,457.366C460.225,463.499 460.142,469.699 460.008,475.966C461.808,474.632 463.792,473.566 465.958,472.766C468.125,471.966 470.508,471.566 473.108,471.566C476.042,471.566 478.758,472.032 481.258,472.966C483.758,473.899 485.925,475.182 487.758,476.816C489.592,478.449 491.025,480.416 492.058,482.716C493.092,485.016 493.608,487.532 493.608,490.266C493.608,493.799 493.042,496.882 491.908,499.516C490.775,502.149 489.242,504.366 487.308,506.166C485.375,507.966 483.075,509.316 480.408,510.216C477.742,511.116 474.908,511.566 471.908,511.566C469.708,511.566 467.542,511.316 465.408,510.816C463.275,510.316 461.308,509.716 459.508,509.016C457.708,508.316 456.192,507.616 454.958,506.916C453.725,506.216 452.908,505.666 452.508,505.266L452.508,447.966C452.508,445.632 451.875,444.032 450.608,443.166C449.342,442.299 447.442,441.866 444.908,441.866L444.908,440.666ZM484.808,491.566C484.808,489.099 484.508,486.832 483.908,484.766C483.308,482.699 482.458,480.916 481.358,479.416C480.258,477.916 478.925,476.732 477.358,475.866C475.792,474.999 474.042,474.566 472.108,474.566C469.975,474.566 468.108,474.832 466.508,475.366C464.908,475.899 463.592,476.816 462.558,478.116C461.525,479.416 460.742,481.166 460.208,483.366C459.675,485.566 459.408,488.299 459.408,491.566C459.408,494.832 459.675,497.549 460.208,499.716C460.742,501.882 461.525,503.616 462.558,504.916C463.592,506.216 464.908,507.149 466.508,507.716C468.108,508.282 469.975,508.566 472.108,508.566C474.042,508.566 475.792,508.132 477.358,507.266C478.925,506.399 480.258,505.216 481.358,503.716C482.458,502.216 483.308,500.432 483.908,498.366C484.508,496.299 484.808,494.032 484.808,491.566Z" style="fill:rgb(1,2,3);fill-rule:nonzero;"/>
        <path d="M504.108,480.766C504.642,478.699 505.392,477.049 506.358,475.816C507.325,474.582 508.442,473.649 509.708,473.016C510.975,472.382 512.408,471.982 514.008,471.816C515.608,471.649 517.308,471.566 519.108,471.566C520.842,471.566 522.558,471.749 524.258,472.116C525.958,472.482 527.492,473.099 528.858,473.966C530.225,474.832 531.325,475.982 532.158,477.416C532.992,478.849 533.408,480.599 533.408,482.666L533.408,501.166C533.408,502.432 533.742,503.549 534.408,504.516C535.075,505.482 536.108,505.966 537.508,505.966C538.842,505.966 540.025,505.582 541.058,504.816C542.092,504.049 543.075,503.299 544.008,502.566L545.008,503.666C544.342,504.332 543.558,505.116 542.658,506.016C541.758,506.916 540.808,507.782 539.808,508.616C538.808,509.449 537.792,510.149 536.758,510.716C535.725,511.282 534.708,511.566 533.708,511.566C533.042,511.566 532.342,511.349 531.608,510.916C530.875,510.482 530.158,509.966 529.458,509.366C528.758,508.766 528.108,508.132 527.508,507.466C526.908,506.799 526.375,506.232 525.908,505.766C523.775,507.232 521.375,508.566 518.708,509.766C516.042,510.966 513.442,511.566 510.908,511.566C509.508,511.566 508.158,511.332 506.858,510.866C505.558,510.399 504.408,509.732 503.408,508.866C502.408,507.999 501.608,506.966 501.008,505.766C500.408,504.566 500.108,503.199 500.108,501.666C500.108,498.932 500.875,496.749 502.408,495.116C503.942,493.482 505.925,492.232 508.358,491.366C510.792,490.499 513.558,489.916 516.658,489.616C519.758,489.316 522.875,489.132 526.008,489.066L526.008,481.466C526.008,478.999 525.242,477.099 523.708,475.766C522.175,474.432 520.242,473.766 517.908,473.766C516.175,473.766 514.808,474.632 513.808,476.366C512.808,478.099 512.308,480.066 512.308,482.266L504.108,480.766ZM525.808,492.966C523.608,492.366 521.375,492.066 519.108,492.066C517.842,492.066 516.575,492.216 515.308,492.516C514.042,492.816 512.908,493.299 511.908,493.966C510.908,494.632 510.092,495.482 509.458,496.516C508.825,497.549 508.508,498.799 508.508,500.266C508.508,502.532 509.292,504.149 510.858,505.116C512.425,506.082 514.175,506.566 516.108,506.566C518.242,506.566 520.192,506.132 521.958,505.266C523.725,504.399 525.008,503.666 525.808,503.066L525.808,492.966Z" style="fill:rgb(1,2,3);fill-rule:nonzero;"/>
        <path d="M545.508,509.166C547.308,508.966 548.692,508.632 549.658,508.166C550.625,507.699 551.325,507.032 551.758,506.166C552.192,505.299 552.458,504.182 552.558,502.816C552.658,501.449 552.708,499.766 552.708,497.766L552.708,451.366C552.708,449.432 552.558,447.849 552.258,446.616C551.958,445.382 551.508,444.416 550.908,443.716C550.308,443.016 549.525,442.532 548.558,442.266C547.592,441.999 546.475,441.832 545.208,441.766L545.208,440.566L560.508,438.766L560.508,492.466C561.242,491.799 562.425,490.849 564.058,489.616C565.692,488.382 567.342,487.049 569.008,485.616C570.675,484.182 572.142,482.749 573.408,481.316C574.675,479.882 575.308,478.599 575.308,477.466C575.308,476.399 575.058,475.649 574.558,475.216C574.058,474.782 573.308,474.499 572.308,474.366L572.308,473.166L591.808,473.166L591.808,474.366C589.808,474.699 587.942,475.282 586.208,476.116C584.475,476.949 582.808,477.916 581.208,479.016C579.608,480.116 578.058,481.299 576.558,482.566C575.058,483.832 573.575,485.066 572.108,486.266C573.642,488.066 575.275,490.199 577.008,492.666C578.742,495.132 580.608,497.532 582.608,499.866C584.608,502.199 586.758,504.249 589.058,506.016C591.358,507.782 593.808,508.832 596.408,509.166L596.408,510.366C594.408,510.232 592.392,510.132 590.358,510.066C588.325,509.999 586.275,509.966 584.208,509.966C582.075,509.966 579.975,509.999 577.908,510.066C575.842,510.132 573.742,510.232 571.608,510.366L571.608,509.166C572.742,509.232 573.908,508.999 575.108,508.466C576.308,507.932 576.908,506.966 576.908,505.566C576.908,504.699 576.492,503.582 575.658,502.216C574.825,500.849 573.858,499.449 572.758,498.016C571.658,496.582 570.542,495.182 569.408,493.816C568.275,492.449 567.442,491.366 566.908,490.566L560.508,495.366L560.508,502.766C560.508,504.899 560.975,506.416 561.908,507.316C562.842,508.216 564.708,508.832 567.508,509.166L567.508,510.366C565.308,510.232 563.125,510.132 560.958,510.066C558.792,509.999 556.608,509.966 554.408,509.966C552.875,509.966 551.392,509.999 549.958,510.066C548.525,510.132 547.042,510.232 545.508,510.366L545.508,509.166Z" style="fill:rgb(1,2,3);fill-rule:nonzero;"/>
        <path d="M609.108,488.966C609.108,492.432 609.558,495.299 610.458,497.566C611.358,499.832 612.492,501.632 613.858,502.966C615.225,504.299 616.692,505.232 618.258,505.766C619.825,506.299 621.275,506.566 622.608,506.566C625.408,506.566 627.942,506.116 630.208,505.216C632.475,504.316 634.575,502.899 636.508,500.966L638.208,502.566C635.475,505.499 632.675,507.732 629.808,509.266C626.942,510.799 623.508,511.566 619.508,511.566C616.642,511.566 614.075,510.999 611.808,509.866C609.542,508.732 607.608,507.232 606.008,505.366C604.408,503.499 603.192,501.366 602.358,498.966C601.525,496.566 601.108,494.099 601.108,491.566C601.108,489.032 601.525,486.566 602.358,484.166C603.192,481.766 604.408,479.632 606.008,477.766C607.608,475.899 609.542,474.399 611.808,473.266C614.075,472.132 616.642,471.566 619.508,471.566C624.775,471.566 629.008,472.999 632.208,475.866C635.408,478.732 637.375,483.099 638.108,488.966L609.108,488.966ZM628.608,485.966C628.408,484.166 628.142,482.549 627.808,481.116C627.475,479.682 626.942,478.482 626.208,477.516C625.475,476.549 624.508,475.816 623.308,475.316C622.108,474.816 620.575,474.566 618.708,474.566C617.308,474.566 616.025,474.916 614.858,475.616C613.692,476.316 612.692,477.216 611.858,478.316C611.025,479.416 610.392,480.649 609.958,482.016C609.525,483.382 609.308,484.699 609.308,485.966L628.608,485.966Z" style="fill:rgb(1,2,3);fill-rule:nonzero;"/>
        <path d="M644.008,509.166C646.275,508.766 648.008,508.216 649.208,507.516C650.408,506.816 651.008,505.366 651.008,503.166L651.008,479.966C651.008,477.966 650.325,476.732 648.958,476.266C647.592,475.799 646.008,475.566 644.208,475.566L644.208,474.366L658.808,472.166L658.808,477.866C659.608,477.332 660.525,476.632 661.558,475.766C662.592,474.899 663.692,474.049 664.858,473.216C666.025,472.382 667.208,471.666 668.408,471.066C669.608,470.466 670.775,470.166 671.908,470.166C674.508,470.166 676.458,470.882 677.758,472.316C679.058,473.749 679.775,475.732 679.908,478.266L671.908,482.466C672.042,481.999 672.175,481.516 672.308,481.016C672.442,480.516 672.508,479.866 672.508,479.066C672.508,478.132 672.175,477.249 671.508,476.416C670.842,475.582 669.942,475.166 668.808,475.166C667.875,475.166 666.942,475.399 666.008,475.866C665.075,476.332 664.175,476.916 663.308,477.616C662.442,478.316 661.625,479.066 660.858,479.866C660.092,480.666 659.408,481.366 658.808,481.966L658.808,503.166C658.808,505.366 659.442,506.816 660.708,507.516C661.975,508.216 663.875,508.766 666.408,509.166L666.408,510.366C664.142,510.232 661.892,510.132 659.658,510.066C657.425,509.999 655.175,509.966 652.908,509.966C651.375,509.966 649.892,509.999 648.458,510.066C647.025,510.132 645.542,510.232 644.008,510.366L644.008,509.166Z" style="fill:rgb(1,2,3);fill-rule:nonzero;"/>
        <path d="M679.508,472.766C681.508,472.966 683.358,473.082 685.058,473.116C686.758,473.149 688.642,473.166 690.708,473.166C692.708,473.166 694.742,473.149 696.808,473.116C698.875,473.082 700.908,472.966 702.908,472.766L702.908,473.966C701.442,474.099 700.042,474.532 698.708,475.266C697.375,475.999 696.708,477.199 696.708,478.866C696.708,480.199 697.142,481.982 698.008,484.216C698.875,486.449 699.892,488.849 701.058,491.416C702.225,493.982 703.425,496.599 704.658,499.266C705.892,501.932 706.875,504.399 707.608,506.666C707.942,505.999 708.458,504.899 709.158,503.366C709.858,501.832 710.658,500.082 711.558,498.116C712.458,496.149 713.358,494.099 714.258,491.966C715.158,489.832 715.992,487.832 716.758,485.966C717.525,484.099 718.158,482.466 718.658,481.066C719.158,479.666 719.408,478.732 719.408,478.266C719.408,477.466 719.225,476.832 718.858,476.366C718.492,475.899 718.042,475.516 717.508,475.216C716.975,474.916 716.342,474.682 715.608,474.516C714.875,474.349 714.175,474.166 713.508,473.966L713.508,472.766C715.042,472.966 716.575,473.082 718.108,473.116C719.642,473.149 721.208,473.166 722.808,473.166C724.342,473.166 725.842,473.149 727.308,473.116C728.775,473.082 730.275,472.966 731.808,472.766L731.808,473.966C729.942,474.232 728.125,475.382 726.358,477.416C724.592,479.449 722.958,481.766 721.458,484.366C719.958,486.966 718.642,489.516 717.508,492.016C716.375,494.516 715.508,496.366 714.908,497.566C712.108,503.366 709.575,508.332 707.308,512.466C705.042,516.599 700.142,525.2 698.308,527.967C696.475,530.734 694.808,532.917 693.308,534.517C691.808,536.117 690.375,537.334 689.008,538.167C687.642,539 686.308,539.534 685.008,539.767C683.708,540 682.358,540.117 680.958,540.117C679.758,540.117 678.575,539.95 677.408,539.617C676.242,539.284 675.208,538.767 674.308,538.067C673.408,537.367 672.675,536.484 672.108,535.417C671.542,534.35 671.258,533.084 671.258,531.617C671.258,530.284 671.742,529.084 672.708,528.017C673.675,526.95 674.825,526.417 676.158,526.417C677.692,526.417 678.925,526.8 679.858,527.567C680.792,528.334 681.258,529.517 681.258,531.117C681.258,532.25 680.992,533.2 680.458,533.967C679.925,534.734 679.658,535.284 679.658,535.617C679.658,536.017 680.142,536.267 681.108,536.367C682.075,536.467 683.025,536.517 683.958,536.517C685.958,536.517 687.925,535.7 689.858,534.067C691.792,532.434 693.508,530.567 695.008,528.467C696.508,526.367 697.725,524.367 698.658,522.467C699.592,520.567 702.908,514.199 702.908,513.666C702.908,513.466 702.675,512.782 702.208,511.616C701.742,510.449 701.108,508.949 700.308,507.116C699.508,505.282 698.608,503.232 697.608,500.966C696.608,498.699 695.608,496.449 694.608,494.216C693.608,491.982 692.608,489.816 691.608,487.716C690.608,485.616 689.742,483.832 689.008,482.366C688.342,480.832 687.775,479.599 687.308,478.666C686.842,477.732 686.275,476.982 685.608,476.416C684.942,475.849 684.142,475.399 683.208,475.066C682.275,474.732 681.042,474.366 679.508,473.966L679.508,472.766Z" style="fill:rgb(1,2,3);fill-rule:nonzero;"/>
    </g>
    <g transform="matrix(1.45008,0,0,1.45008,2.71372,-1365.71)">
        <g transform="matrix(0.519652,0,0,1.74989,36.0688,908.533)">
            <g transform="matrix(1.32707,-0,-0,0.394092,-73.0108,19.0186)">
                <circle cx="239.544" cy="215.918" r="4.5"/>
                <path d="M66.965,215.918L236.844,215.918" style="fill:none;stroke:black;stroke-width:3px;"/>
            </g>
        </g>
        <g transform="matrix(2.60892,0,0,1.74989,-688.836,908.533)">
            <g transform="matrix(0.26433,-0,-0,0.394092,263.314,19.0186)">
                <circle cx="450.873" cy="215.918" r="4.5"/>
                <path d="M453.573,215.918L1433.04,215.918" style="fill:none;stroke:black;stroke-width:3px;"/>
            </g>
        </g>
        <g transform="matrix(1.05449,0,0,1.22665,-114.172,953.601)">
            <path d="M261.381,111.778L398.416,144.582" style="fill:none;stroke:black;stroke-width:1.81px;"/>
        </g>
    </g>
</svg>
